<svg version="1.1" viewBox="0.0 0.0 113.38582677165354 113.38582677165354" fill="none" stroke="none" stroke-linecap="square" stroke-miterlimit="10" xmlns:xlink="http://www.w3.org/1999/xlink" xmlns="http://www.w3.org/2000/svg"><clipPath id="p.0"><path d="m0 0l113.385826 0l0 113.385826l-113.385826 0l0 -113.385826z" clip-rule="nonzero"/></clipPath><g clip-path="url(#p.0)"><path fill="#000000" fill-opacity="0.0" d="m0 0l113.385826 0l0 113.385826l-113.385826 0z" fill-rule="evenodd"/><path fill="#ffffff" d="m3.8110237 21.438673l0 0c0 -9.735482 7.892167 -17.62765 17.62765 -17.62765l70.50848 0l0 0c4.675148 0 9.158806 1.8571935 12.46463 5.163019c3.305832 3.3058252 5.163025 7.789486 5.163025 12.46463l0 70.50848c0 9.735481 -7.892174 17.627655 -17.627655 17.627655l-70.50848 0c-9.735482 0 -17.62765 -7.892174 -17.62765 -17.627655z" fill-rule="evenodd"/><path stroke="#cc0000" stroke-width="8.0" stroke-linejoin="round" stroke-linecap="butt" d="m3.8110237 21.438673l0 0c0 -9.735482 7.892167 -17.62765 17.62765 -17.62765l70.50848 0l0 0c4.675148 0 9.158806 1.8571935 12.46463 5.163019c3.305832 3.3058252 5.163025 7.789486 5.163025 12.46463l0 70.50848c0 9.735481 -7.892174 17.627655 -17.627655 17.627655l-70.50848 0c-9.735482 0 -17.62765 -7.892174 -17.62765 -17.627655z" fill-rule="evenodd"/><path fill="#000000" fill-opacity="0.0" d="m-2.4382005 45.102364l121.03937 0l0 23.181099l-121.03937 0z" fill-rule="evenodd"/><path fill="#cc0000" d="m53.224342 19.104166q21.265625 0 31.640625 9.671875q10.375 9.671877 10.375 27.703127q0 11.765621 -5.078125 20.578121q-5.078125 8.796875 -14.75 13.65625q-9.65625 4.859375 -23.15625 4.859375q-1.734375 0 -4.546875 -0.109375q-2.796875 -0.109375 -5.828125 -0.15625q-3.015625 -0.0625 -5.40625 -0.0625q-4.749998 0 -9.343748 0.0625q-4.578125 0.046875 -7.28125 0.265625l0 -2.15625q3.453125 -0.21875 5.171875 -0.859375q1.734375 -0.65625 2.328125 -2.59375q0.59375 -1.953125 0.59375 -5.84375l0 -53.5625q0 -4.0 -0.59375 -5.890625q-0.59375 -1.890625 -2.375 -2.59375q-1.78125 -0.703125 -5.125 -0.796875l0 -2.171875q2.703125 0.109375 7.28125 0.28125q4.59375 0.15625 9.140623 0.046875q3.875 -0.109375 8.78125 -0.21875q4.921875 -0.109375 8.171875 -0.109375zm-0.109375 1.953125q-4.96875 0 -6.484375 1.84375q-1.515625 1.828125 -1.515625 7.4375l0 54.0q0 5.625 1.5625 7.46875q1.578125 1.828125 6.546875 1.828125q9.0625 0 14.296875 -4.265625q5.25 -4.265625 7.515625 -12.46875q2.265625 -8.21875 2.265625 -19.984371q0 -12.109375 -2.4375 -20.046875q-2.421875 -7.937502 -7.71875 -11.875002q-5.28125 -3.9375 -14.03125 -3.9375z" fill-rule="nonzero"/><path fill="#ffffff" d="m46.514336 104.44357l-0.03149414 -89.98425l12.377953 0l0.03149414 89.98425z" fill-rule="evenodd"/></g></svg>