<svg version="1.1" viewBox="0.0 0.0 491.33858267716533 113.38582677165354" fill="none" stroke="none" stroke-linecap="square" stroke-miterlimit="10" xmlns:xlink="http://www.w3.org/1999/xlink" xmlns="http://www.w3.org/2000/svg"><clipPath id="p.0"><path d="m0 0l491.3386 0l0 113.385826l-491.3386 0l0 -113.385826z" clip-rule="nonzero"/></clipPath><g clip-path="url(#p.0)"><path fill="#000000" fill-opacity="0.0" d="m0 0l491.3386 0l0 113.385826l-491.3386 0z" fill-rule="evenodd"/><path fill="#000000" fill-opacity="0.0" d="m-10.564303 45.102364l514.9921 0l0 23.181099l-514.9921 0z" fill-rule="evenodd"/><path fill="#cc0000" d="m40.060543 19.104166q21.265625 0 31.640629 9.671875q10.375 9.671877 10.375 27.703127q0 11.765621 -5.078125 20.578121q-5.078125 8.796875 -14.750004 13.65625q-9.65625 4.859375 -23.15625 4.859375q-1.734375 0 -4.546875 -0.109375q-2.796873 -0.109375 -5.828123 -0.15625q-3.015625 -0.0625 -5.40625 -0.0625q-4.75 0 -9.343751 0.0625q-4.578125 0.046875 -7.2812495 0.265625l0 -2.15625q3.4531245 -0.21875 5.1718745 -0.859375q1.734375 -0.65625 2.328125 -2.59375q0.59375 -1.953125 0.59375 -5.84375l0 -53.5625q0 -4.0 -0.59375 -5.890625q-0.59375 -1.890625 -2.375 -2.59375q-1.78125 -0.703125 -5.1249995 -0.796875l0 -2.171875q2.7031245 0.109375 7.2812495 0.28125q4.593751 0.15625 9.140626 0.046875q3.875 -0.109375 8.78125 -0.21875q4.921873 -0.109375 8.171873 -0.109375zm-0.109375 1.953125q-4.96875 0 -6.484375 1.84375q-1.5156231 1.828125 -1.5156231 7.4375l0 54.0q0 5.625 1.5624981 7.46875q1.578125 1.828125 6.546875 1.828125q9.0625 0 14.296875 -4.265625q5.25 -4.265625 7.515625 -12.46875q2.2656288 -8.21875 2.2656288 -19.984371q0 -12.109375 -2.4375038 -20.046875q-2.421875 -7.937502 -7.71875 -11.875002q-5.28125 -3.9375 -14.03125 -3.9375zm103.24553 17.484377l0 45.26562q0 4.859375 1.515625 7.1875q1.515625 2.3125 5.390625 2.3125l0 2.265625q-3.34375 -0.328125 -6.6875 -0.328125q-4.53125 0 -8.421875 0.328125q-3.890625 0.328125 -7.34375 1.1875l0 -9.71875q-2.59375 5.40625 -7.1875 7.734375q-4.59375 2.3125 -10.203125 2.3125q-4.53125 0 -7.34375 -1.1875q-2.8125 -1.1875 -4.4375 -3.03125q-1.828125 -2.046875 -2.59375 -5.390625q-0.75 -3.359375 -0.75 -8.640625l0 -27.328121q0 -4.859375 -1.453125 -7.171875q-1.453125 -2.328125 -5.453125 -2.328125l0 -2.28125q3.453125 0.328125 6.6875 0.328125q4.546875 0 8.484375 -0.375q3.9375 -0.375 7.296875 -1.140625l0 44.718746q0 2.703125 0.484375 4.75q0.484375 2.046875 1.875 3.1875q1.40625 1.140625 4.109375 1.140625q2.921875 0 5.234375 -1.625q2.328125 -1.625 3.78125 -4.484375q1.46875 -2.859375 1.46875 -6.421875l0 -28.296871q0 -4.859375 -1.46875 -7.171875q-1.453125 -2.328125 -5.453125 -2.328125l0 -2.28125q3.46875 0.328125 6.703125 0.328125q4.53125 0 8.46875 -0.375q3.953125 -0.375 7.296875 -1.140625zm39.526154 -0.3125q7.890625 0 13.828125 2.921875q5.9375 2.90625 9.28125 9.390625q3.359375 6.46875 3.359375 17.171871q0 10.6875 -3.359375 17.125q-3.34375 6.421875 -9.28125 9.34375q-5.9375 2.90625 -13.828125 2.90625q-7.671875 0 -13.671875 -2.90625q-5.984375 -2.921875 -9.390625 -9.34375q-3.390625 -6.4375 -3.390625 -17.125q0 -10.703121 3.390625 -17.171871q3.40625 -6.484375 9.390625 -9.390625q6.0 -2.921875 13.671875 -2.921875zm0 2.15625q-4.3125 0 -7.234375 6.421875q-2.921875 6.421875 -2.921875 20.906246q0 14.46875 2.921875 20.84375q2.921875 6.375 7.234375 6.375q4.4375 0 7.296875 -6.375q2.859375 -6.375 2.859375 -20.84375q0 -14.484371 -2.859375 -20.906246q-2.859375 -6.421875 -7.296875 -6.421875z" fill-rule="nonzero"/><path fill="#000000" d="m262.7585 95.572914l0 -2.15625q3.453125 -0.21875 5.171875 -0.859375q1.734375 -0.65625 2.328125 -2.59375q0.59375 -1.953125 0.59375 -5.84375l0 -53.5625q0 -4.0 -0.59375 -5.890625q-0.59375 -1.890625 -2.375 -2.59375q-1.78125 -0.703125 -5.125 -0.796875l0 -2.171875q2.90625 0.109375 7.609375 0.21875q4.703125 0.109375 9.34375 0.109375q4.96875 0 9.34375 -0.109375q4.375 -0.109375 7.078125 -0.21875l0 2.171875q-3.46875 0.09375 -5.25 0.796875q-1.78125 0.703125 -2.328125 2.59375q-0.53125 1.890625 -0.53125 5.890625l0 53.5625q0 3.890625 0.59375 5.84375q0.59375 1.9375 2.3125 2.59375q1.734375 0.640625 5.203125 0.859375l0 2.15625q-2.703125 -0.21875 -7.078125 -0.265625q-4.375 -0.0625 -9.34375 -0.0625q-4.640625 0 -9.34375 0.0625q-4.703125 0.046875 -7.609375 0.265625zm-45.79689 0l0 -2.15625q3.453125 -0.21875 5.171875 -0.859375q1.734375 -0.65625 2.328125 -2.59375q0.59375 -1.953125 0.59375 -5.84375l0 -53.5625q0 -4.0 -0.59375 -5.890625q-0.59375 -1.890625 -2.375 -2.59375q-1.78125 -0.703125 -5.125 -0.796875l0 -2.171875q2.8125 0.109375 7.28125 0.21875q4.484375 0.109375 9.78125 0.109375q4.53125 0 8.953125 -0.109375q4.4375153 -0.109375 7.3593903 -0.21875l0 2.171875q-3.453125 0.09375 -5.2343903 0.796875q-1.78125 0.703125 -2.328125 2.59375q-0.546875 1.890625 -0.546875 5.890625l0 53.5625q0 3.890625 0.59375 5.84375q0.59375 1.9375 2.328125 2.59375q1.7343903 0.640625 5.1875153 0.859375l0 2.15625q-2.921875 -0.21875 -7.3593903 -0.265625q-4.421875 -0.0625 -8.953125 -0.0625q-5.296875 0 -9.78125 0.0625q-4.46875 0.046875 -7.28125 0.265625zm18.25 -37.374996l0 -2.15625l42.656265 0l0 2.15625l-42.656265 0zm81.103165 -46.328125q4.546875 0 7.1875 2.21875q2.640625 2.218749 2.640625 6.093749q0 3.890625 -2.640625 6.109375q-2.640625 2.21875 -7.1875 2.21875q-4.53125 0 -7.1875 -2.21875q-2.640625 -2.21875 -2.640625 -6.109375q0 -3.875 2.640625 -6.093749q2.65625 -2.21875 7.1875 -2.21875zm8.4375 26.671875l0 46.98437q0 4.53125 1.5625 6.15625q1.5625 1.625 5.34375 1.625l0 2.265625q-1.9375 -0.109375 -6.046875 -0.265625q-4.109375 -0.171875 -8.3125 -0.171875q-4.21875 0 -8.546875 0.171875q-4.3125 0.15625 -6.46875 0.265625l0 -2.265625q3.78125 0 5.34375 -1.625q1.5625 -1.625 1.5625 -6.15625l0 -34.01562q0 -4.859375 -1.453125 -7.171875q-1.453125 -2.328125 -5.453125 -2.328125l0 -2.28125q3.453125 0.328125 6.6875 0.328125q4.546875 0 8.484375 -0.375q3.9375 -0.375 7.296875 -1.140625zm63.275513 1.1875l0 2.171875q-2.046875 0.53125 -3.890625 2.53125q-1.828125 2.0 -3.5625 6.75l-15.765625 44.60937q-1.71875 -0.109375 -3.5 -0.109375q-1.78125 0 -3.515625 0.109375l-19.21875 -47.73437q-1.734375 -4.21875 -3.40625 -5.125q-1.671875 -0.921875 -2.859375 -0.921875l0 -2.28125q3.453125 0.21875 7.171875 0.390625q3.734375 0.15625 8.15625 0.15625q3.359375 0 7.078125 -0.15625q3.71875 -0.171875 6.96875 -0.390625l0 2.28125q-2.265625 0 -4.046875 0.21875q-1.78125 0.203125 -2.4375 1.390625q-0.640625 1.1875 0.21875 4.21875l12.640625 33.48437l-1.078125 1.5l8.53125 -23.640621q2.046875 -5.84375 1.71875 -9.5625q-0.328125 -3.734375 -2.375 -5.609375q-2.046875 -1.890625 -5.5 -2.109375l0 -2.171875q1.609375 0.109375 3.5 0.171875q1.890625 0.046875 3.671875 0.109375q1.78125 0.046875 3.1875 0.046875q2.15625 0 4.53125 -0.109375q2.390625 -0.109375 3.78125 -0.21875zm28.947144 -1.5q9.5 0 14.90625 5.625q5.40625 5.609375 5.40625 18.34375l-35.53125 0l-0.21875 -2.046875l22.140625 0q0.109375 -5.296875 -0.65625 -9.78125q-0.75 -4.484375 -2.375 -7.171875q-1.609375 -2.703125 -4.3125 -2.703125q-3.78125 0 -6.4375 4.75q-2.640625 4.75 -3.171875 15.765625l0.3125 0.65625q-0.109375 1.296875 -0.171875 2.7031212q-0.046875 1.390625 -0.046875 2.90625q0 7.453125 2.109375 12.09375q2.109375 4.640625 5.34375 6.75q3.25 2.109375 6.59375 2.109375q2.265625 0 4.6875 -0.703125q2.4375 -0.703125 4.921875 -2.59375q2.484375 -1.890625 4.640625 -5.34375l1.953125 0.640625q-1.296875 4.109375 -4.109375 8.0q-2.8125 3.890625 -7.140625 6.375q-4.3125 2.484375 -10.359375 2.484375q-7.34375 0 -12.953125 -3.125q-5.609375 -3.140625 -8.796875 -9.515625q-3.1875 -6.375 -3.1875 -16.203125q0 -10.046871 3.390625 -16.734371q3.40625 -6.703125 9.390625 -9.984375q6.0 -3.296875 13.671875 -3.296875zm47.94763 0q4.546875 0 7.9375 1.140625q3.40625 1.125 4.921875 2.203125q3.671875 2.484375 4.53125 -3.234375l2.265625 0q-0.203125 3.015625 -0.3125 7.390625q-0.109375 4.375 -0.109375 11.609375l-2.265625 0q-0.546875 -4.0 -2.0625 -7.875q-1.5 -3.890625 -4.375 -6.375q-2.859375 -2.484375 -7.390625 -2.484375q-3.140625 0 -5.296875 1.78125q-2.15625 1.78125 -2.15625 5.125q0 3.25 1.9375 5.6875q1.953125 2.421875 5.03125 4.640625q3.078125 2.203125 6.421875 4.6875q3.5625 2.7031212 6.46875 5.343746q2.921875 2.640625 4.65625 5.78125q1.734375 3.125 1.734375 7.453125q0 4.859375 -2.8125 8.484375q-2.8125 3.609375 -7.40625 5.5625q-4.578125 1.9375 -10.203125 1.9375q-3.234375 0 -5.78125 -0.65625q-2.53125 -0.640625 -4.359375 -1.609375q-1.40625 -0.65625 -2.65625 -1.25q-1.234375 -0.59375 -2.3125 -1.03125q-1.09375 -0.3125 -1.90625 0.765625q-0.796875 1.078125 -1.234375 3.015625l-2.265625 0q0.21875 -3.453125 0.328125 -8.421875q0.109375 -4.96875 0.109375 -13.171875l2.265625 0q0.640625 5.828125 2.359375 10.3125q1.734375 4.484375 4.703125 7.03125q2.984375 2.53125 7.515625 2.53125q1.828125 0 3.5625 -0.75q1.734375 -0.765625 2.859375 -2.484375q1.140625 -1.734375 1.140625 -4.4375q0 -4.75 -3.078125 -7.875q-3.078125 -3.140625 -7.828125 -6.8125q-3.46875 -2.8125 -6.546875 -5.5625q-3.078125 -2.7499962 -5.015625 -6.046871q-1.9375 -3.296875 -1.9375 -7.5q0 -4.859375 2.578125 -8.203125q2.59375 -3.359375 6.859375 -5.03125q4.265625 -1.671875 9.125 -1.671875z" fill-rule="nonzero"/></g></svg>